<?xml version="1.0" encoding="UTF-8" standalone="no"?>
<!DOCTYPE svg PUBLIC "-//W3C//DTD SVG 1.0//EN" "http://www.w3.org/TR/2001/PR-SVG-20010719/DTD/svg10.dtd">
<svg width="23cm" height="26cm" viewBox="58 38 454 503" xmlns="http://www.w3.org/2000/svg" xmlns:xlink="http://www.w3.org/1999/xlink">
  <rect style="fill: none; fill-opacity:0; stroke-width: 2; stroke-linejoin: round; stroke: #000000" x="60" y="40" width="451" height="500" rx="14" ry="14"/>
  <g>
    <rect style="fill: #ffffff" x="142" y="133" width="187.7" height="18"/>
    <rect style="fill: none; fill-opacity:0; stroke-width: 2; stroke-linejoin: round; stroke: #000000" x="142" y="133" width="187.7" height="18"/>
    <text font-size="11.2" style="fill: #000000;text-anchor:middle;font-family:sans-serif;font-style:normal;font-weight:700" x="235.85" y="147">urls</text>
    <rect style="fill: #ffffff" x="142" y="151" width="187.7" height="68"/>
    <rect style="fill: none; fill-opacity:0; stroke-width: 2; stroke-linejoin: round; stroke: #000000" x="142" y="151" width="187.7" height="68"/>
    <polygon style="fill: #000000" points="145,161 147,164 149,161 147,158 "/>
    <text font-size="12.8" style="fill: #000000;text-anchor:start;font-family:monospace;font-style:normal;font-weight:normal" x="151" y="167">id</text>
    <text font-size="12.8" style="fill: #000000;text-anchor:start;font-family:monospace;font-style:normal;font-weight:normal" x="222.6" y="167">bigint</text>
    <line style="fill: none; fill-opacity:0; stroke-width: 1; stroke: #000000" x1="151" y1="168.6" x2="268.8" y2="168.6"/>
    <ellipse style="fill: #000000" cx="147" cy="177" rx="2" ry="2"/>
    <text font-size="12.8" style="fill: #000000;text-anchor:start;font-family:monospace;font-style:normal;font-weight:normal" x="151" y="183">url</text>
    <text font-size="12.8" style="fill: #000000;text-anchor:start;font-family:monospace;font-style:normal;font-weight:normal" x="222.6" y="183">varchar(2048)</text>
    <ellipse style="fill: #000000" cx="147" cy="193" rx="2" ry="2"/>
    <text font-size="12.8" style="fill: #000000;text-anchor:start;font-family:monospace;font-style:normal;font-weight:normal" x="151" y="199">hostname</text>
    <text font-size="12.8" style="fill: #000000;text-anchor:start;font-family:monospace;font-style:normal;font-weight:normal" x="222.6" y="199">varchar(256)</text>
    <ellipse style="fill: #000000" cx="147" cy="209" rx="2" ry="2"/>
    <text font-size="12.8" style="fill: #000000;text-anchor:start;font-family:monospace;font-style:normal;font-weight:normal" x="151" y="215">scheme</text>
    <text font-size="12.8" style="fill: #000000;text-anchor:start;font-family:monospace;font-style:normal;font-weight:normal" x="222.6" y="215">varchar(8)</text>
  </g>
  <g>
    <rect style="fill: #ffffff" x="140" y="420" width="287.8" height="18"/>
    <rect style="fill: none; fill-opacity:0; stroke-width: 2; stroke: #000000" x="140" y="420" width="287.8" height="18"/>
    <text font-size="11.2" style="fill: #000000;text-anchor:middle;font-family:sans-serif;font-style:normal;font-weight:700" x="283.9" y="434">users</text>
    <rect style="fill: #ffffff" x="140" y="438" width="287.8" height="52"/>
    <rect style="fill: none; fill-opacity:0; stroke-width: 2; stroke: #000000" x="140" y="438" width="287.8" height="52"/>
    <polygon style="fill: #000000" points="143,448 145,451 147,448 145,445 "/>
    <text font-size="12.8" style="fill: #000000;text-anchor:start;font-family:monospace;font-style:normal;font-weight:normal" x="149" y="454">id</text>
    <text font-size="12.8" style="fill: #000000;text-anchor:start;font-family:monospace;font-style:normal;font-weight:normal" x="212.9" y="454">integer</text>
    <line style="fill: none; fill-opacity:0; stroke-width: 1; stroke: #000000" x1="149" y1="455.6" x2="266.8" y2="455.6"/>
    <ellipse style="fill: #000000" cx="145" cy="464" rx="2" ry="2"/>
    <text font-size="12.8" style="fill: #000000;text-anchor:start;font-family:monospace;font-style:normal;font-weight:normal" x="149" y="470">token</text>
    <text font-size="12.8" style="fill: #000000;text-anchor:start;font-family:monospace;font-style:normal;font-weight:normal" x="212.9" y="470">varchar(36)</text>
    <ellipse style="fill: none; fill-opacity:0; stroke-width: 0.2; stroke: #000000" cx="145" cy="480" rx="2" ry="2"/>
    <text font-size="12.8" style="fill: #000000;text-anchor:start;font-family:monospace;font-style:normal;font-weight:normal" x="149" y="486">created</text>
    <text font-size="12.8" style="fill: #000000;text-anchor:start;font-family:monospace;font-style:normal;font-weight:normal" x="212.9" y="486">timestamp without time zone</text>
  </g>
  <g>
    <rect style="fill: #ffffff" x="140" y="260" width="310.9" height="18"/>
    <rect style="fill: none; fill-opacity:0; stroke-width: 2; stroke: #000000" x="140" y="260" width="310.9" height="18"/>
    <text font-size="11.2" style="fill: #000000;text-anchor:middle;font-family:sans-serif;font-style:normal;font-weight:700" x="295.45" y="274">sessions</text>
    <rect style="fill: #ffffff" x="140" y="278" width="310.9" height="100"/>
    <rect style="fill: none; fill-opacity:0; stroke-width: 2; stroke: #000000" x="140" y="278" width="310.9" height="100"/>
    <polygon style="fill: #000000" points="143,288 145,291 147,288 145,285 "/>
    <text font-size="12.8" style="fill: #000000;text-anchor:start;font-family:monospace;font-style:normal;font-weight:normal" x="149" y="294">id</text>
    <text font-size="12.8" style="fill: #000000;text-anchor:start;font-family:monospace;font-style:normal;font-weight:normal" x="236" y="294">bigint</text>
    <line style="fill: none; fill-opacity:0; stroke-width: 1; stroke: #000000" x1="149" y1="295.6" x2="282.2" y2="295.6"/>
    <ellipse style="fill: #000000" cx="145" cy="304" rx="2" ry="2"/>
    <text font-size="12.8" style="fill: #000000;text-anchor:start;font-family:monospace;font-style:normal;font-weight:normal" x="149" y="310">url_id</text>
    <text font-size="12.8" style="fill: #000000;text-anchor:start;font-family:monospace;font-style:normal;font-weight:normal" x="236" y="310">bigint</text>
    <ellipse style="fill: #000000" cx="145" cy="320" rx="2" ry="2"/>
    <text font-size="12.8" style="fill: #000000;text-anchor:start;font-family:monospace;font-style:normal;font-weight:normal" x="149" y="326">user_id</text>
    <text font-size="12.8" style="fill: #000000;text-anchor:start;font-family:monospace;font-style:normal;font-weight:normal" x="236" y="326">integer</text>
    <ellipse style="fill: #000000" cx="145" cy="336" rx="2" ry="2"/>
    <text font-size="12.8" style="fill: #000000;text-anchor:start;font-family:monospace;font-style:normal;font-weight:normal" x="149" y="342">start_time</text>
    <text font-size="12.8" style="fill: #000000;text-anchor:start;font-family:monospace;font-style:normal;font-weight:normal" x="236" y="342">timestamp without time zone</text>
    <ellipse style="fill: none; fill-opacity:0; stroke-width: 0.2; stroke: #000000" cx="145" cy="352" rx="2" ry="2"/>
    <text font-size="12.8" style="fill: #000000;text-anchor:start;font-family:monospace;font-style:normal;font-weight:normal" x="149" y="358">duration</text>
    <text font-size="12.8" style="fill: #000000;text-anchor:start;font-family:monospace;font-style:normal;font-weight:normal" x="236" y="358">integer</text>
    <ellipse style="fill: none; fill-opacity:0; stroke-width: 0.2; stroke: #000000" cx="145" cy="368" rx="2" ry="2"/>
    <text font-size="12.8" style="fill: #000000;text-anchor:start;font-family:monospace;font-style:normal;font-weight:normal" x="149" y="374">tab_id</text>
    <text font-size="12.8" style="fill: #000000;text-anchor:start;font-family:monospace;font-style:normal;font-weight:normal" x="236" y="374">varchar(32)</text>
  </g>
  <g>
    <polyline style="fill: none; fill-opacity:0; stroke-width: 2; stroke: #000000" points="142,161 120,161 120,304 140,304 "/>
    <text font-size="9.59961" style="fill: #000000;text-anchor:end;font-family:monospace;font-style:normal;font-weight:normal" x="138" y="157">1</text>
    <text font-size="9.59961" style="fill: #000000;text-anchor:end;font-family:monospace;font-style:normal;font-weight:normal" x="136" y="300">n</text>
  </g>
  <g>
    <polyline style="fill: none; fill-opacity:0; stroke-width: 2; stroke: #000000" points="140,448 120,448 120,320 140,320 "/>
    <text font-size="9.59961" style="fill: #000000;text-anchor:end;font-family:monospace;font-style:normal;font-weight:normal" x="136" y="444">1</text>
    <text font-size="9.59961" style="fill: #000000;text-anchor:end;font-family:monospace;font-style:normal;font-weight:normal" x="136" y="316">n</text>
  </g>
  <text font-size="12.7998" style="fill: #ffffff;text-anchor:start;font-family:sans-serif;font-style:normal;font-weight:normal" x="439" y="78">
    <tspan x="439" y="78"/>
  </text>
  <text font-size="12.7998" style="fill: #ffffff;text-anchor:start;font-family:sans-serif;font-style:normal;font-weight:normal" x="275" y="72">
    <tspan x="275" y="72">micacle</tspan>
  </text>
  <text font-size="28.2222" style="fill: #000000;text-anchor:middle;font-family:sans-serif;font-style:normal;font-weight:700" x="280" y="86.2">
    <tspan x="280" y="86.2">miracle</tspan>
    <tspan x="280" y="121.478"/>
  </text>
  <g>
    <path style="fill: none; fill-opacity:0; stroke-width: 0.02; stroke-linecap: round; stroke: #ffffff" d="M 261.875 90.1562 L 263.438,90.1562 L 263.438,92.0312 L 261.875,92.0312 L 261.875,90.1562"/>
    <path style="fill: none; fill-opacity:0; stroke-width: 0.02; stroke-linecap: round; stroke: #ffffff" d="M 263.125 88.9062 L 261.875,88.9062 L 261.875,87.6562 C 261.875,87.0312 261.875,86.6406 261.875,86.4062 C 262.031,86.0156 262.5,85.625 263.125,85.1562 L 263.75,84.5312 C 264.141,84.1406 264.375,83.8281 264.375,83.5938 C 264.375,83.4375 264.375,83.2031 264.375,82.9688 C 264.375,82.5781 264.141,82.2656 263.75,82.0312 C 263.516,81.6406 263.203,81.4062 262.812,81.4062 C 262.188,81.4062 261.641,81.5625 261.25,81.7188 C 260.781,81.9531 260.391,82.2656 260,82.6562 L 260,81.0938 C 260.391,80.7031 260.781,80.4688 261.25,80.4688 C 261.875,80.3125 262.5,80.1562 263.125,80.1562 C 263.906,80.1562 264.688,80.4688 265.312,81.0938 C 265.938,81.5625 266.25,82.1875 266.25,82.9688 C 266.25,83.4375 266.094,83.8281 265.938,84.2188 C 265.703,84.4531 265.312,84.7656 264.688,85.1562 L 264.375,86.0938 C 263.906,86.3281 263.594,86.5625 263.438,86.7188 C 263.438,86.9531 263.281,87.1875 263.125,87.3438 C 263.125,87.5781 263.125,87.8125 263.125,87.9688 L 263.125,88.9062"/>
  </g>
  <text font-size="12.7998" style="fill: #ffffff;text-anchor:start;font-family:sans-serif;font-style:normal;font-weight:normal" x="-140" y="380">
    <tspan x="-140" y="380"/>
  </text>
</svg>